<mxfile pages="1"><diagram id="0qC4Z7bGpUC7BYPgH2us" name="Page-1"><mxGraphModel dx="1996" dy="771" grid="1" gridSize="10" guides="1" tooltips="1" connect="1" arrows="1" fold="1" page="1" pageScale="1" pageWidth="850" pageHeight="1100" background="#F4F1DE" math="0" shadow="0"><root><mxCell id="0"/><mxCell id="1" parent="0"/><mxCell id="MKIpRhs5HCuuM-AJHsOf-5" value="&lt;p style=&quot;margin: 0px ; margin-top: 4px ; text-align: center&quot;&gt;&lt;i&gt;&amp;lt;&amp;lt;Interface&amp;gt;&amp;gt;&lt;/i&gt;&lt;br&gt;&lt;b&gt;Tree&amp;lt;T&amp;gt;&lt;/b&gt;&lt;/p&gt;&lt;hr size=&quot;1&quot;&gt;&lt;p style=&quot;margin: 0px ; margin-left: 4px&quot;&gt;# num_nodes: int&lt;/p&gt;&lt;hr size=&quot;1&quot;&gt;&lt;p style=&quot;margin: 0px ; margin-left: 4px&quot;&gt;# tree()&lt;br&gt;# numNodes(): int&lt;/p&gt;&lt;p style=&quot;margin: 0px ; margin-left: 4px&quot;&gt;&lt;span&gt;# getDegree(node&amp;lt;T&amp;gt;): int&lt;/span&gt;&lt;/p&gt;&lt;p style=&quot;margin: 0px ; margin-left: 4px&quot;&gt;# getParent(node&amp;lt;T&amp;gt;): node&amp;lt;T&amp;gt;&lt;/p&gt;&lt;p style=&quot;margin: 0px ; margin-left: 4px&quot;&gt;# getChildren(node&amp;lt;T&amp;gt;): list&amp;lt;node&amp;lt;T&amp;gt;&amp;gt;&lt;/p&gt;&lt;p style=&quot;margin: 0px ; margin-left: 4px&quot;&gt;# addNode(node&amp;lt;T&amp;gt;,node&amp;lt;T&amp;gt;):void&lt;/p&gt;&lt;p style=&quot;margin: 0px ; margin-left: 4px&quot;&gt;# addChildrens(node,list&amp;lt;node&amp;lt;T&amp;gt;):void&lt;/p&gt;&lt;p style=&quot;margin: 0px ; margin-left: 4px&quot;&gt;&lt;br&gt;&lt;/p&gt;" style="verticalAlign=top;align=left;overflow=fill;fontSize=12;fontFamily=Helvetica;html=1;fillColor=#F2CC8F;strokeColor=#E07A5F;fontColor=#393C56;" parent="1" vertex="1"><mxGeometry x="110" y="40" width="250" height="240" as="geometry"/></mxCell><mxCell id="MKIpRhs5HCuuM-AJHsOf-6" style="edgeStyle=orthogonalEdgeStyle;rounded=0;orthogonalLoop=1;jettySize=auto;html=1;exitX=0;exitY=0.5;exitDx=0;exitDy=0;entryX=1;entryY=0.5;entryDx=0;entryDy=0;strokeColor=none;labelBackgroundColor=#F4F1DE;fontColor=#393C56;" parent="1" target="MKIpRhs5HCuuM-AJHsOf-5" edge="1"><mxGeometry relative="1" as="geometry"><mxPoint x="660" y="159" as="sourcePoint"/></mxGeometry></mxCell><mxCell id="8" value="&lt;p style=&quot;margin: 0px ; margin-top: 4px ; text-align: center&quot;&gt;&lt;b&gt;node&amp;lt;T&amp;gt;&lt;/b&gt;&lt;/p&gt;&lt;hr size=&quot;1&quot;&gt;&lt;p style=&quot;margin: 0px ; margin-left: 4px&quot;&gt;&lt;/p&gt;- node_list: list&amp;lt;node&amp;lt;T&amp;gt;&amp;gt;&lt;br&gt;- parent: node&amp;lt;T&amp;gt;*&lt;br&gt;- value: T&lt;br&gt;- pos: int&amp;nbsp;&lt;br&gt;- max_children:&amp;nbsp;&lt;br&gt;&lt;hr size=&quot;1&quot;&gt;&lt;p style=&quot;margin: 0px ; margin-left: 4px&quot;&gt;- addChildren(): void&lt;/p&gt;&lt;p style=&quot;margin: 0px ; margin-left: 4px&quot;&gt;&lt;span&gt;+&amp;nbsp; node()&lt;/span&gt;&lt;/p&gt;&lt;p style=&quot;margin: 0px ; margin-left: 4px&quot;&gt;&lt;span&gt;+ node(T,node&amp;lt;T&amp;gt;,int)&lt;/span&gt;&lt;/p&gt;&lt;p style=&quot;margin: 0px ; margin-left: 4px&quot;&gt;&lt;span&gt;+ getValue(): T&lt;/span&gt;&lt;/p&gt;&lt;p style=&quot;margin: 0px ; margin-left: 4px&quot;&gt;&lt;span&gt;+ setValue(T): void&lt;/span&gt;&lt;/p&gt;&lt;p style=&quot;margin: 0px ; margin-left: 4px&quot;&gt;&lt;span&gt;+&amp;nbsp;&lt;/span&gt;&lt;/p&gt;" style="verticalAlign=top;align=left;overflow=fill;fontSize=12;fontFamily=Helvetica;html=1;fillColor=#F2CC8F;strokeColor=#E07A5F;fontColor=#393C56;" parent="1" vertex="1"><mxGeometry x="490" y="42.5" width="270" height="235" as="geometry"/></mxCell><mxCell id="11" value="" style="endArrow=diamondThin;endFill=1;endSize=24;html=1;entryX=1;entryY=0.5;entryDx=0;entryDy=0;exitX=0;exitY=0.5;exitDx=0;exitDy=0;labelBackgroundColor=#F4F1DE;strokeColor=#E07A5F;fontColor=#393C56;" parent="1" source="8" target="MKIpRhs5HCuuM-AJHsOf-5" edge="1"><mxGeometry width="160" relative="1" as="geometry"><mxPoint x="500" y="180" as="sourcePoint"/><mxPoint x="340" y="180" as="targetPoint"/></mxGeometry></mxCell><mxCell id="13" style="edgeStyle=orthogonalEdgeStyle;rounded=0;orthogonalLoop=1;jettySize=auto;html=1;entryX=0.5;entryY=1;entryDx=0;entryDy=0;labelBackgroundColor=#F4F1DE;strokeColor=#E07A5F;fontColor=#393C56;" parent="1" source="12" target="MKIpRhs5HCuuM-AJHsOf-5" edge="1"><mxGeometry relative="1" as="geometry"/></mxCell><mxCell id="12" value="&lt;p style=&quot;margin: 0px ; margin-top: 4px ; text-align: center&quot;&gt;&lt;b&gt;tree_general&amp;lt;T&amp;gt;&lt;/b&gt;&lt;/p&gt;&lt;hr size=&quot;1&quot;&gt;&lt;p style=&quot;margin: 0px ; margin-left: 4px&quot;&gt;- degree: int&lt;/p&gt;&lt;p style=&quot;margin: 0px ; margin-left: 4px&quot;&gt;- root: node&amp;lt;T&amp;gt;&lt;/p&gt;&lt;p style=&quot;margin: 0px ; margin-left: 4px&quot;&gt;- nodes_map: map&amp;lt;T,node&amp;lt;T&amp;gt;*&amp;gt;&lt;/p&gt;&lt;hr size=&quot;1&quot;&gt;&lt;p style=&quot;margin: 0px ; margin-left: 4px&quot;&gt;+&amp;nbsp; getDegree(node&amp;lt;T&amp;gt;): int&lt;/p&gt;&lt;p style=&quot;margin: 0px ; margin-left: 4px&quot;&gt;+ getParent(node&amp;lt;T&amp;gt;): node&amp;lt;T&amp;gt;&lt;/p&gt;&lt;p style=&quot;margin: 0px ; margin-left: 4px&quot;&gt;+ getChildren(node&amp;lt;T&amp;gt;):list&amp;lt;node&amp;lt;T&amp;gt;*&amp;gt;&lt;/p&gt;&lt;p style=&quot;margin: 0px ; margin-left: 4px&quot;&gt;&lt;span&gt;+ addNode(node&amp;lt;T&amp;gt;,node&amp;lt;T&amp;gt;):void&lt;/span&gt;&lt;br&gt;&lt;/p&gt;&lt;p style=&quot;margin: 0px ; margin-left: 4px&quot;&gt;&lt;span&gt;+ addChildrens(node&amp;lt;T&amp;gt;,list&amp;lt;node&amp;lt;T&amp;gt;): void&lt;/span&gt;&lt;/p&gt;&lt;p style=&quot;margin: 0px ; margin-left: 4px&quot;&gt;&lt;span&gt;+ visitaDFS(node&amp;lt;T&amp;gt;):void&lt;/span&gt;&lt;/p&gt;&lt;p style=&quot;margin: 0px ; margin-left: 4px&quot;&gt;&lt;span&gt;+ visitaBFS(node&amp;lt;T&amp;gt;):void&lt;/span&gt;&lt;/p&gt;" style="verticalAlign=top;align=left;overflow=fill;fontSize=12;fontFamily=Helvetica;html=1;fillColor=#F2CC8F;strokeColor=#E07A5F;fontColor=#393C56;direction=north;" parent="1" vertex="1"><mxGeometry x="-20" y="355" width="260" height="195" as="geometry"/></mxCell><mxCell id="18" style="edgeStyle=orthogonalEdgeStyle;rounded=0;sketch=0;orthogonalLoop=1;jettySize=auto;html=1;exitX=0;exitY=0.5;exitDx=0;exitDy=0;entryX=0.5;entryY=1;entryDx=0;entryDy=0;strokeColor=#E07A5F;fillColor=#F2CC8F;fontColor=#393C56;" parent="1" source="14" target="MKIpRhs5HCuuM-AJHsOf-5" edge="1"><mxGeometry relative="1" as="geometry"/></mxCell><mxCell id="14" value="&lt;p style=&quot;margin: 0px ; margin-top: 4px ; text-align: center&quot;&gt;&lt;b&gt;tree_pos_vector&amp;lt;T&amp;gt;&lt;/b&gt;&lt;/p&gt;&lt;hr size=&quot;1&quot;&gt;&lt;p style=&quot;margin: 0px ; margin-left: 4px&quot;&gt;- degree: int&lt;/p&gt;&lt;p style=&quot;margin: 0px ; margin-left: 4px&quot;&gt;- root: node&amp;lt;T&amp;gt;&lt;/p&gt;&lt;p style=&quot;margin: 0px ; margin-left: 4px&quot;&gt;- vec_node : vector&amp;lt;node&amp;lt;T&amp;gt;*&amp;gt;&lt;/p&gt;&lt;hr size=&quot;1&quot;&gt;&lt;p style=&quot;margin: 0px ; margin-left: 4px&quot;&gt;+&amp;nbsp; getDegree(node&amp;lt;T&amp;gt;): int&lt;/p&gt;&lt;p style=&quot;margin: 0px ; margin-left: 4px&quot;&gt;+ getParent(node&amp;lt;T&amp;gt;): node&amp;lt;T&amp;gt;&lt;/p&gt;&lt;p style=&quot;margin: 0px ; margin-left: 4px&quot;&gt;+ getChildren(node&amp;lt;T&amp;gt;):list&amp;lt;node&amp;lt;T&amp;gt;*&amp;gt;&lt;/p&gt;&lt;p style=&quot;margin: 0px ; margin-left: 4px&quot;&gt;&lt;span&gt;+ addNode(node&amp;lt;T&amp;gt;,node&amp;lt;T&amp;gt;):void&lt;/span&gt;&lt;br&gt;&lt;/p&gt;&lt;p style=&quot;margin: 0px ; margin-left: 4px&quot;&gt;&lt;span&gt;+ addChildrens(node&amp;lt;T&amp;gt;,list&amp;lt;node&amp;lt;T&amp;gt;): void&lt;/span&gt;&lt;/p&gt;&lt;p style=&quot;margin: 0px ; margin-left: 4px&quot;&gt;&lt;br&gt;&lt;/p&gt;" style="verticalAlign=top;align=left;overflow=fill;fontSize=12;fontFamily=Helvetica;html=1;fillColor=#F2CC8F;strokeColor=#E07A5F;fontColor=#393C56;direction=south;" parent="1" vertex="1"><mxGeometry x="270" y="355" width="250" height="195" as="geometry"/></mxCell></root></mxGraphModel></diagram></mxfile>